P2
# CREATOR: GIMP PNM Filter Version 1.1
3 3
255
0
255
0
255
0
255
0
255
255
